<svg width="37" height="33" viewBox="0 0 37 33" fill="none" xmlns="http://www.w3.org/2000/svg">
<path d="M37 16.5C37 20.8761 35.0509 25.0729 31.5815 28.1673C28.1121 31.2616 23.4065 33 18.5 33C13.5935 33 8.88795 31.2616 5.41852 28.1673C1.9491 25.0729 0 20.8761 0 16.5C0 12.1239 1.9491 7.92709 5.41852 4.83274C8.88795 1.73839 13.5935 0 18.5 0C23.4065 0 28.1121 1.73839 31.5815 4.83274C35.0509 7.92709 37 12.1239 37 16.5ZM15.7019 10.5043C15.529 10.3945 15.3255 10.3293 15.1139 10.3158C14.9022 10.3022 14.6904 10.341 14.5017 10.4276C14.313 10.5143 14.1548 10.6457 14.0442 10.8073C13.9337 10.9689 13.8751 11.1545 13.875 11.3438V21.6562C13.8751 21.8455 13.9337 22.0311 14.0442 22.1927C14.1548 22.3543 14.313 22.4857 14.5017 22.5724C14.6904 22.659 14.9022 22.6978 15.1139 22.6842C15.3255 22.6707 15.529 22.6055 15.7019 22.4957L23.7956 17.3394C23.9455 17.244 24.0677 17.1181 24.152 16.9721C24.2363 16.8261 24.2803 16.6642 24.2803 16.5C24.2803 16.3358 24.2363 16.1739 24.152 16.0279C24.0677 15.8819 23.9455 15.756 23.7956 15.6606L15.7019 10.5043Z" fill="black"/>
</svg>
